<?xml version="1.0" encoding="UTF-8"?>
<svg version="1.1" xmlns="http://www.w3.org/2000/svg"
     width="360" height="200" viewBox="0 0 360 200">
<line x1="39.8" y1="50.0" x2="43.0" y2="50.0" stroke="#000000" stroke-width="3.0" stroke-linecap="round"/>
<line x1="65.0" y1="50.0" x2="127.0" y2="50.0" stroke="#000000" stroke-width="3.0" stroke-linecap="round"/>
<line x1="149.0" y1="50.0" x2="211.0" y2="50.0" stroke="#000000" stroke-width="3.0" stroke-linecap="round"/>
<line x1="233.0" y1="50.0" x2="295.0" y2="50.0" stroke="#000000" stroke-width="3.0" stroke-linecap="round"/>
<line x1="317.0" y1="50.0" x2="320.2" y2="50.0" stroke="#000000" stroke-width="3.0" stroke-linecap="round"/>
<line x1="39.8" y1="120.0" x2="43.0" y2="120.0" stroke="#000000" stroke-width="3.0" stroke-linecap="round"/>
<line x1="65.0" y1="120.0" x2="127.0" y2="120.0" stroke="#000000" stroke-width="3.0" stroke-linecap="round"/>
<line x1="149.0" y1="120.0" x2="211.0" y2="120.0" stroke="#000000" stroke-width="3.0" stroke-linecap="round"/>
<line x1="233.0" y1="120.0" x2="295.0" y2="120.0" stroke="#000000" stroke-width="3.0" stroke-linecap="round"/>
<line x1="317.0" y1="120.0" x2="320.2" y2="120.0" stroke="#000000" stroke-width="3.0" stroke-linecap="round"/>
<line x1="54.0" y1="60.0" x2="54.0" y2="110.0" stroke="#000000" stroke-width="3.0"/>
<line x1="138.0" y1="60.0" x2="138.0" y2="110.0" stroke="#000000" stroke-width="3.0"/>
<line x1="222.0" y1="60.0" x2="222.0" y2="110.0" stroke="#000000" stroke-width="3.0"/>
<line x1="306.0" y1="60.0" x2="306.0" y2="110.0" stroke="#000000" stroke-width="3.0"/>
<line x1="54.0" y1="40.0" x2="54.0" y2="15.0" stroke="#000000" stroke-width="3.0"/>
<line x1="138.0" y1="40.0" x2="138.0" y2="15.0" stroke="#000000" stroke-width="3.0"/>
<line x1="222.0" y1="40.0" x2="222.0" y2="15.0" stroke="#000000" stroke-width="3.0"/>
<line x1="306.0" y1="40.0" x2="306.0" y2="15.0" stroke="#000000" stroke-width="3.0"/>
<line x1="54.0" y1="130.0" x2="54.0" y2="155.0" stroke="#000000" stroke-width="3.0"/>
<line x1="138.0" y1="130.0" x2="138.0" y2="155.0" stroke="#000000" stroke-width="3.0"/>
<line x1="222.0" y1="130.0" x2="222.0" y2="155.0" stroke="#000000" stroke-width="3.0"/>
<line x1="306.0" y1="130.0" x2="306.0" y2="155.0" stroke="#000000" stroke-width="3.0"/>
<circle cx="54.0" cy="50.0" r="10.0" fill="#4063D8" stroke="#000000" stroke-width="1.5"/>
<circle cx="54.0" cy="120.0" r="10.0" fill="#4063D8" stroke="#000000" stroke-width="1.5"/>
<circle cx="138.0" cy="50.0" r="10.0" fill="#CB3C33" stroke="#000000" stroke-width="1.5"/>
<circle cx="138.0" cy="120.0" r="10.0" fill="#CB3C33" stroke="#000000" stroke-width="1.5"/>
<circle cx="222.0" cy="50.0" r="10.0" fill="#389826" stroke="#000000" stroke-width="1.5"/>
<circle cx="222.0" cy="120.0" r="10.0" fill="#389826" stroke="#000000" stroke-width="1.5"/>
<circle cx="306.0" cy="50.0" r="10.0" fill="#9558B2" stroke="#000000" stroke-width="1.5"/>
<circle cx="306.0" cy="120.0" r="10.0" fill="#9558B2" stroke="#000000" stroke-width="1.5"/>
</svg>
